<?xml version="1.0" encoding="UTF-8"?>
<svg id="Layer_1" data-name="Layer 1" xmlns="http://www.w3.org/2000/svg" viewBox="0 0 1080 1080">
  <defs>
    <style>
      .cls-1 {
        fill: #f1f2f2;
      }
    </style>
  </defs>
  <rect width="1080" height="1080"/>
  <g>
    <path class="cls-1" d="M512.17,448.18c-14.33-41.38-53.84-52.65-88.21-74.28v330.33c-4.6-2.81-7.95-4.41-10.79-6.67-25.93-20.65-37.98-48.12-38.16-80.75-.4-74.03-.32-148.06-.53-222.09,0-2.96-.19-5.93-.61-8.86-7.87-54.89-52.7-70.75-94.2-93.99v329.67c-33.41-20.92-47.31-50.47-47.54-86.85-.46-72.37-.24-144.73-.42-217.1,0-3.91-.25-7.83-.78-11.71-7.45-54.73-51.12-72.64-92.1-95.03,0,12.96,0,24.26,0,35.55,0,112.71,.43,225.43-.22,338.14-.25,43.4,16.02,75.12,54.75,96.83,75.85,42.51,150.74,86.72,226.05,130.19,32.75,18.9,65.56,37.69,100.15,57.57,0-130.08,.19-257.52-.31-384.96-.05-12.04-3.12-24.52-7.09-36Z"/>
    <path class="cls-1" d="M941.14,231.08c0-6.38,0-12.76,0-19.17-2.07,.15-3.12-.07-3.81,.33-106.12,61.34-211.75,123.55-318.56,183.69-40.61,22.87-58.65,54.86-58.34,100.69,.79,116.02,.28,232.05,.29,348.07,0,7.45,0,14.9,0,24.4,12.78-7.36,23.81-14.44,35.46-20.28,39.94-20,57.96-52.5,57.76-96.64-.31-69.42-.13-138.85,.32-208.27,.24-36.48,14.89-65.5,47.94-86.65v330.5c17.54-9.91,33.07-17.96,47.87-27.2,31.35-19.58,47.48-47.55,47.2-85.23-.5-66.57-.23-133.14,.07-199.71,.06-12.74,.44-25.74,2.95-38.15,5.39-26.63,20.27-47.02,45.74-62.54v330.59c14.81-8.57,27.09-16.48,40.05-23.04,39.61-20.07,55.53-52.73,55.31-96.17-.61-118.4-.23-236.8-.24-355.21Z"/>
  </g>
</svg>